<mxfile host="app.diagrams.net" agent="Mozilla/5.0 (Windows NT 10.0; Win64; x64) AppleWebKit/537.36 (KHTML, like Gecko) Chrome/133.0.0.0 Safari/537.36" version="26.0.11">
  <diagram name="Page-1" id="NCArv4mWC_7C3QKiHAK6">
    <mxGraphModel dx="1434" dy="772" grid="1" gridSize="10" guides="1" tooltips="1" connect="1" arrows="1" fold="1" page="1" pageScale="1" pageWidth="850" pageHeight="1100" math="0" shadow="0">
      <root>
        <mxCell id="0" />
        <mxCell id="1" parent="0" />
        <mxCell id="ep_1ymyTCZ9elvJ-E0dE-5" value="" style="edgeStyle=orthogonalEdgeStyle;rounded=0;orthogonalLoop=1;jettySize=auto;html=1;" edge="1" parent="1" source="ep_1ymyTCZ9elvJ-E0dE-2" target="ep_1ymyTCZ9elvJ-E0dE-4">
          <mxGeometry relative="1" as="geometry" />
        </mxCell>
        <mxCell id="ep_1ymyTCZ9elvJ-E0dE-2" value="START" style="ellipse;whiteSpace=wrap;html=1;fillColor=#d5e8d4;strokeColor=#82b366;" vertex="1" parent="1">
          <mxGeometry x="365" y="10" width="120" height="80" as="geometry" />
        </mxCell>
        <mxCell id="ep_1ymyTCZ9elvJ-E0dE-3" value="&lt;b&gt;Flowchart 2- student level&lt;/b&gt;" style="text;html=1;align=center;verticalAlign=middle;whiteSpace=wrap;rounded=0;" vertex="1" parent="1">
          <mxGeometry x="130" y="20" width="220" height="30" as="geometry" />
        </mxCell>
        <mxCell id="ep_1ymyTCZ9elvJ-E0dE-7" value="" style="edgeStyle=orthogonalEdgeStyle;rounded=0;orthogonalLoop=1;jettySize=auto;html=1;" edge="1" parent="1" source="ep_1ymyTCZ9elvJ-E0dE-4" target="ep_1ymyTCZ9elvJ-E0dE-6">
          <mxGeometry relative="1" as="geometry" />
        </mxCell>
        <mxCell id="ep_1ymyTCZ9elvJ-E0dE-4" value="read_student_file() where the program tries to open&amp;nbsp; and read datalines from students.csv" style="whiteSpace=wrap;html=1;" vertex="1" parent="1">
          <mxGeometry x="338" y="120" width="175" height="90" as="geometry" />
        </mxCell>
        <mxCell id="ep_1ymyTCZ9elvJ-E0dE-9" value="" style="edgeStyle=orthogonalEdgeStyle;rounded=0;orthogonalLoop=1;jettySize=auto;html=1;" edge="1" parent="1" source="ep_1ymyTCZ9elvJ-E0dE-6" target="ep_1ymyTCZ9elvJ-E0dE-8">
          <mxGeometry relative="1" as="geometry" />
        </mxCell>
        <mxCell id="ep_1ymyTCZ9elvJ-E0dE-10" value="YES" style="edgeLabel;html=1;align=center;verticalAlign=middle;resizable=0;points=[];" vertex="1" connectable="0" parent="ep_1ymyTCZ9elvJ-E0dE-9">
          <mxGeometry x="-0.235" relative="1" as="geometry">
            <mxPoint as="offset" />
          </mxGeometry>
        </mxCell>
        <mxCell id="ep_1ymyTCZ9elvJ-E0dE-12" value="" style="edgeStyle=orthogonalEdgeStyle;rounded=0;orthogonalLoop=1;jettySize=auto;html=1;" edge="1" parent="1" target="ep_1ymyTCZ9elvJ-E0dE-11">
          <mxGeometry relative="1" as="geometry">
            <mxPoint x="540" y="295.5" as="sourcePoint" />
          </mxGeometry>
        </mxCell>
        <mxCell id="ep_1ymyTCZ9elvJ-E0dE-6" value="student file open successfull?" style="rhombus;whiteSpace=wrap;html=1;" vertex="1" parent="1">
          <mxGeometry x="368.38" y="233" width="114.5" height="125" as="geometry" />
        </mxCell>
        <mxCell id="ep_1ymyTCZ9elvJ-E0dE-22" value="" style="edgeStyle=orthogonalEdgeStyle;rounded=0;orthogonalLoop=1;jettySize=auto;html=1;" edge="1" parent="1" source="ep_1ymyTCZ9elvJ-E0dE-8" target="ep_1ymyTCZ9elvJ-E0dE-21">
          <mxGeometry relative="1" as="geometry" />
        </mxCell>
        <mxCell id="ep_1ymyTCZ9elvJ-E0dE-8" value="Read lines into variable and display students into console" style="whiteSpace=wrap;html=1;" vertex="1" parent="1">
          <mxGeometry x="365.51" y="470" width="120" height="60" as="geometry" />
        </mxCell>
        <mxCell id="ep_1ymyTCZ9elvJ-E0dE-16" value="" style="edgeStyle=orthogonalEdgeStyle;rounded=0;orthogonalLoop=1;jettySize=auto;html=1;" edge="1" parent="1" source="ep_1ymyTCZ9elvJ-E0dE-11" target="ep_1ymyTCZ9elvJ-E0dE-15">
          <mxGeometry relative="1" as="geometry" />
        </mxCell>
        <mxCell id="ep_1ymyTCZ9elvJ-E0dE-11" value="Show error in console" style="whiteSpace=wrap;html=1;" vertex="1" parent="1">
          <mxGeometry x="560" y="320" width="120" height="60" as="geometry" />
        </mxCell>
        <mxCell id="ep_1ymyTCZ9elvJ-E0dE-20" value="" style="edgeStyle=orthogonalEdgeStyle;rounded=0;orthogonalLoop=1;jettySize=auto;html=1;" edge="1" parent="1" source="ep_1ymyTCZ9elvJ-E0dE-15" target="ep_1ymyTCZ9elvJ-E0dE-19">
          <mxGeometry relative="1" as="geometry" />
        </mxCell>
        <mxCell id="ep_1ymyTCZ9elvJ-E0dE-15" value="Create student file (calling function create_student_file)" style="whiteSpace=wrap;html=1;" vertex="1" parent="1">
          <mxGeometry x="550" y="410" width="140" height="70" as="geometry" />
        </mxCell>
        <mxCell id="ep_1ymyTCZ9elvJ-E0dE-38" value="" style="edgeStyle=orthogonalEdgeStyle;rounded=0;orthogonalLoop=1;jettySize=auto;html=1;" edge="1" parent="1" source="ep_1ymyTCZ9elvJ-E0dE-19" target="ep_1ymyTCZ9elvJ-E0dE-37">
          <mxGeometry relative="1" as="geometry" />
        </mxCell>
        <mxCell id="ep_1ymyTCZ9elvJ-E0dE-19" value="Show success message&amp;nbsp;&amp;nbsp;" style="whiteSpace=wrap;html=1;" vertex="1" parent="1">
          <mxGeometry x="560" y="530" width="120" height="60" as="geometry" />
        </mxCell>
        <mxCell id="ep_1ymyTCZ9elvJ-E0dE-24" value="" style="edgeStyle=orthogonalEdgeStyle;rounded=0;orthogonalLoop=1;jettySize=auto;html=1;" edge="1" parent="1" source="ep_1ymyTCZ9elvJ-E0dE-21" target="ep_1ymyTCZ9elvJ-E0dE-23">
          <mxGeometry relative="1" as="geometry" />
        </mxCell>
        <mxCell id="ep_1ymyTCZ9elvJ-E0dE-21" value="Runs a checker of how many students are enrolled&amp;nbsp;" style="whiteSpace=wrap;html=1;" vertex="1" parent="1">
          <mxGeometry x="365.25" y="610" width="120" height="60" as="geometry" />
        </mxCell>
        <mxCell id="ep_1ymyTCZ9elvJ-E0dE-26" value="" style="edgeStyle=orthogonalEdgeStyle;rounded=0;orthogonalLoop=1;jettySize=auto;html=1;" edge="1" parent="1" source="ep_1ymyTCZ9elvJ-E0dE-23" target="ep_1ymyTCZ9elvJ-E0dE-25">
          <mxGeometry relative="1" as="geometry" />
        </mxCell>
        <mxCell id="ep_1ymyTCZ9elvJ-E0dE-27" value="YES" style="edgeLabel;html=1;align=center;verticalAlign=middle;resizable=0;points=[];" vertex="1" connectable="0" parent="ep_1ymyTCZ9elvJ-E0dE-26">
          <mxGeometry x="-0.4024" relative="1" as="geometry">
            <mxPoint as="offset" />
          </mxGeometry>
        </mxCell>
        <mxCell id="ep_1ymyTCZ9elvJ-E0dE-31" value="" style="edgeStyle=orthogonalEdgeStyle;rounded=0;orthogonalLoop=1;jettySize=auto;html=1;" edge="1" parent="1" source="ep_1ymyTCZ9elvJ-E0dE-23" target="ep_1ymyTCZ9elvJ-E0dE-30">
          <mxGeometry relative="1" as="geometry" />
        </mxCell>
        <mxCell id="ep_1ymyTCZ9elvJ-E0dE-32" value="no" style="edgeLabel;html=1;align=center;verticalAlign=middle;resizable=0;points=[];" vertex="1" connectable="0" parent="ep_1ymyTCZ9elvJ-E0dE-31">
          <mxGeometry x="-0.2727" y="-2" relative="1" as="geometry">
            <mxPoint as="offset" />
          </mxGeometry>
        </mxCell>
        <mxCell id="ep_1ymyTCZ9elvJ-E0dE-23" value="Is there 8 or more students?" style="rhombus;whiteSpace=wrap;html=1;" vertex="1" parent="1">
          <mxGeometry x="368.13" y="720" width="114.75" height="120" as="geometry" />
        </mxCell>
        <mxCell id="ep_1ymyTCZ9elvJ-E0dE-29" value="" style="edgeStyle=orthogonalEdgeStyle;rounded=0;orthogonalLoop=1;jettySize=auto;html=1;" edge="1" parent="1" source="ep_1ymyTCZ9elvJ-E0dE-25" target="ep_1ymyTCZ9elvJ-E0dE-28">
          <mxGeometry relative="1" as="geometry" />
        </mxCell>
        <mxCell id="ep_1ymyTCZ9elvJ-E0dE-25" value="Print error that maximum students are enrolled" style="whiteSpace=wrap;html=1;" vertex="1" parent="1">
          <mxGeometry x="560.255" y="750" width="120" height="60" as="geometry" />
        </mxCell>
        <mxCell id="ep_1ymyTCZ9elvJ-E0dE-28" value="Exit" style="whiteSpace=wrap;html=1;fillColor=#f8cecc;strokeColor=#b85450;" vertex="1" parent="1">
          <mxGeometry x="560.255" y="860" width="120" height="60" as="geometry" />
        </mxCell>
        <mxCell id="ep_1ymyTCZ9elvJ-E0dE-34" value="" style="edgeStyle=orthogonalEdgeStyle;rounded=0;orthogonalLoop=1;jettySize=auto;html=1;entryX=0.5;entryY=1;entryDx=0;entryDy=0;" edge="1" parent="1" source="ep_1ymyTCZ9elvJ-E0dE-30" target="ep_1ymyTCZ9elvJ-E0dE-28">
          <mxGeometry relative="1" as="geometry">
            <mxPoint x="565.5050000000001" y="980" as="targetPoint" />
          </mxGeometry>
        </mxCell>
        <mxCell id="ep_1ymyTCZ9elvJ-E0dE-35" value="NO" style="edgeLabel;html=1;align=center;verticalAlign=middle;resizable=0;points=[];" vertex="1" connectable="0" parent="ep_1ymyTCZ9elvJ-E0dE-34">
          <mxGeometry x="-0.0876" y="1" relative="1" as="geometry">
            <mxPoint as="offset" />
          </mxGeometry>
        </mxCell>
        <mxCell id="ep_1ymyTCZ9elvJ-E0dE-40" value="" style="edgeStyle=orthogonalEdgeStyle;rounded=0;orthogonalLoop=1;jettySize=auto;html=1;" edge="1" parent="1" source="ep_1ymyTCZ9elvJ-E0dE-30" target="ep_1ymyTCZ9elvJ-E0dE-39">
          <mxGeometry relative="1" as="geometry" />
        </mxCell>
        <mxCell id="ep_1ymyTCZ9elvJ-E0dE-41" value="YES" style="edgeLabel;html=1;align=center;verticalAlign=middle;resizable=0;points=[];" vertex="1" connectable="0" parent="ep_1ymyTCZ9elvJ-E0dE-40">
          <mxGeometry x="-0.3966" y="-3" relative="1" as="geometry">
            <mxPoint as="offset" />
          </mxGeometry>
        </mxCell>
        <mxCell id="ep_1ymyTCZ9elvJ-E0dE-30" value="Do you want to add a student [y/n]?" style="whiteSpace=wrap;html=1;" vertex="1" parent="1">
          <mxGeometry x="365.505" y="950" width="120" height="60" as="geometry" />
        </mxCell>
        <mxCell id="ep_1ymyTCZ9elvJ-E0dE-36" value="" style="edgeStyle=orthogonalEdgeStyle;rounded=0;orthogonalLoop=1;jettySize=auto;html=1;" edge="1" parent="1" source="ep_1ymyTCZ9elvJ-E0dE-6" target="ep_1ymyTCZ9elvJ-E0dE-14">
          <mxGeometry relative="1" as="geometry">
            <mxPoint x="483" y="296" as="sourcePoint" />
            <mxPoint x="590" y="410" as="targetPoint" />
          </mxGeometry>
        </mxCell>
        <mxCell id="ep_1ymyTCZ9elvJ-E0dE-14" value="NO" style="text;html=1;align=center;verticalAlign=middle;resizable=0;points=[];autosize=1;strokeColor=none;fillColor=none;" vertex="1" parent="1">
          <mxGeometry x="510" y="280.5" width="40" height="30" as="geometry" />
        </mxCell>
        <mxCell id="ep_1ymyTCZ9elvJ-E0dE-37" value="Exit" style="whiteSpace=wrap;html=1;fillColor=#f8cecc;strokeColor=#b85450;" vertex="1" parent="1">
          <mxGeometry x="560" y="630" width="120" height="60" as="geometry" />
        </mxCell>
        <mxCell id="ep_1ymyTCZ9elvJ-E0dE-43" value="" style="edgeStyle=orthogonalEdgeStyle;rounded=0;orthogonalLoop=1;jettySize=auto;html=1;" edge="1" parent="1" source="ep_1ymyTCZ9elvJ-E0dE-39" target="ep_1ymyTCZ9elvJ-E0dE-42">
          <mxGeometry relative="1" as="geometry" />
        </mxCell>
        <mxCell id="ep_1ymyTCZ9elvJ-E0dE-39" value="Add student first name &amp;gt;" style="whiteSpace=wrap;html=1;" vertex="1" parent="1">
          <mxGeometry x="240.005" y="1040" width="120" height="60" as="geometry" />
        </mxCell>
        <mxCell id="ep_1ymyTCZ9elvJ-E0dE-45" value="" style="edgeStyle=orthogonalEdgeStyle;rounded=0;orthogonalLoop=1;jettySize=auto;html=1;" edge="1" parent="1" source="ep_1ymyTCZ9elvJ-E0dE-42" target="ep_1ymyTCZ9elvJ-E0dE-44">
          <mxGeometry relative="1" as="geometry" />
        </mxCell>
        <mxCell id="ep_1ymyTCZ9elvJ-E0dE-42" value="Add student last name &amp;gt;" style="whiteSpace=wrap;html=1;" vertex="1" parent="1">
          <mxGeometry x="240.005" y="1130" width="120" height="60" as="geometry" />
        </mxCell>
        <mxCell id="ep_1ymyTCZ9elvJ-E0dE-47" value="" style="edgeStyle=orthogonalEdgeStyle;rounded=0;orthogonalLoop=1;jettySize=auto;html=1;" edge="1" parent="1" source="ep_1ymyTCZ9elvJ-E0dE-44" target="ep_1ymyTCZ9elvJ-E0dE-46">
          <mxGeometry relative="1" as="geometry" />
        </mxCell>
        <mxCell id="ep_1ymyTCZ9elvJ-E0dE-44" value="Add student age &amp;gt;" style="whiteSpace=wrap;html=1;" vertex="1" parent="1">
          <mxGeometry x="240.015" y="1220" width="120" height="60" as="geometry" />
        </mxCell>
        <mxCell id="ep_1ymyTCZ9elvJ-E0dE-48" style="edgeStyle=orthogonalEdgeStyle;rounded=0;orthogonalLoop=1;jettySize=auto;html=1;entryX=0.5;entryY=1;entryDx=0;entryDy=0;" edge="1" parent="1" source="ep_1ymyTCZ9elvJ-E0dE-46" target="ep_1ymyTCZ9elvJ-E0dE-30">
          <mxGeometry relative="1" as="geometry" />
        </mxCell>
        <mxCell id="ep_1ymyTCZ9elvJ-E0dE-46" value="Student details added succesfully" style="whiteSpace=wrap;html=1;" vertex="1" parent="1">
          <mxGeometry x="240.005" y="1330" width="120" height="60" as="geometry" />
        </mxCell>
      </root>
    </mxGraphModel>
  </diagram>
</mxfile>
